<svg width="25" height="23" viewBox="0 0 25 23" fill="none" xmlns="http://www.w3.org/2000/svg">
<path d="M1.90332 1H5.90332L8.58332 14.39C8.67476 14.8504 8.92523 15.264 9.29087 15.5583C9.6565 15.8526 10.114 16.009 10.5833 16H20.3033C20.7726 16.009 21.2301 15.8526 21.5958 15.5583C21.9614 15.264 22.2119 14.8504 22.3033 14.39L23.9033 6H6.90332M10.9033 21C10.9033 21.5523 10.4556 22 9.90332 22C9.35104 22 8.90332 21.5523 8.90332 21C8.90332 20.4477 9.35104 20 9.90332 20C10.4556 20 10.9033 20.4477 10.9033 21ZM21.9033 21C21.9033 21.5523 21.4556 22 20.9033 22C20.351 22 19.9033 21.5523 19.9033 21C19.9033 20.4477 20.351 20 20.9033 20C21.4556 20 21.9033 20.4477 21.9033 21Z" stroke="none" stroke-width="2" stroke-linecap="round" stroke-linejoin="round"/>
</svg>
