<svg width="23" height="21" viewBox="0 0 23 21" fill="none" xmlns="http://www.w3.org/2000/svg">
<path d="M20.2913 2.9961C19.7805 2.48511 19.1741 2.07975 18.5066 1.80319C17.8392 1.52662 17.1238 1.38428 16.4013 1.38428C15.6788 1.38428 14.9634 1.52662 14.2959 1.80319C13.6285 2.07975 13.022 2.48511 12.5113 2.9961L11.4513 4.0561L10.3913 2.9961C9.3596 1.96441 7.96032 1.38481 6.50129 1.38481C5.04226 1.38481 3.64298 1.96441 2.61129 2.9961C1.5796 4.0278 1 5.42707 1 6.8861C1 8.34514 1.5796 9.74441 2.61129 10.7761L11.4513 19.6161L20.2913 10.7761C20.8023 10.2653 21.2076 9.65892 21.4842 8.99146C21.7608 8.324 21.9031 7.60859 21.9031 6.8861C21.9031 6.16362 21.7608 5.44821 21.4842 4.78075C21.2076 4.11329 20.8023 3.50686 20.2913 2.9961Z" stroke="none" stroke-width="2" stroke-linecap="round" stroke-linejoin="round"/>
</svg>
