<svg width="117" height="59" viewBox="0 0 117 59" fill="none" xmlns="http://www.w3.org/2000/svg">
<path fill-rule="evenodd" clip-rule="evenodd" d="M11.1527 0.0521542C9.04979 0.442469 7.33953 1.33532 5.75535 2.86991C4.09995 4.47353 3.05006 6.5979 2.06875 10.3301C1.34194 13.0947 0.537299 18.7962 0.33056 22.6487C0.275694 23.6697 0.155385 25.6562 0.0631706 27.0632C-0.187527 30.8918 0.33403 39.0565 1.16644 44.3329C2.62419 53.5734 4.80363 57.7568 8.72655 58.8437C9.34908 59.0162 10.6845 59.0386 14.8411 58.9467C21.6749 58.7955 96.2595 58.7913 103.45 58.9416C108.335 59.0439 109.007 59.0255 109.895 58.7644C111.275 58.3589 112.11 57.8291 113.085 56.7405C114.889 54.7241 115.878 51.6508 116.779 45.261C117.109 42.9191 117.06 34.4336 116.697 31.1705C115.882 23.8379 114.72 18.6502 113.057 14.9236C110.963 10.2319 107.294 7.72193 100.558 6.37313C96.368 5.53411 94.8667 5.43506 86.5935 5.45176C79.1616 5.46678 77.7881 5.52517 67.2582 6.27407C58.1175 6.92409 56.3859 7.04053 54.4506 7.13553C53.3144 7.19122 52.1246 7.26834 51.8064 7.30681C51.4883 7.34529 48.156 7.42646 44.4012 7.48704C37.0531 7.6055 36.2319 7.55285 32.9669 6.75399C30.9481 6.26007 27.6076 5.06465 24.7866 3.82689C20.9169 2.12894 17.8598 0.944327 16.2933 0.535956C14.7782 0.140747 12.0554 -0.115413 11.1527 0.0521542ZM15.5321 3.73542C16.932 4.11882 19.9376 5.23914 21.5738 5.98737C23.4916 6.86436 24.1198 7.12878 26.2842 7.97016C30.3051 9.53362 33.4838 10.3711 36.8027 10.7415C39.0334 10.9906 44.5735 10.9617 50.1538 10.672C54.8733 10.427 56.0387 10.3527 64.9445 9.73038C74.1463 9.08745 76.1863 8.9624 81.3878 8.72278C95.8749 8.05555 104.348 9.50932 108.121 13.3094C110.774 15.981 112.561 22.1086 113.526 31.8455C113.828 34.8874 113.835 42.056 113.54 44.8602C113.285 47.2742 112.801 49.9137 112.352 51.336C111.917 52.7114 110.96 54.4408 110.348 54.9561L109.777 55.4369L59.3492 55.436C25.4648 55.4354 8.81331 55.3787 8.5912 55.2632C6.48448 54.1682 4.68927 48.1755 3.77522 39.1861C3.42223 35.7141 3.37248 24.8295 3.69325 21.2144C4.44683 12.7192 5.80559 7.49261 7.7968 5.43033C9.32825 3.84393 10.474 3.3576 12.7227 3.33887C13.6285 3.33144 14.5131 3.45615 15.5321 3.73542ZM18.2836 22.7139C18.1005 22.8323 18.065 24.4511 18.0848 31.7593C18.1126 41.9827 18.1225 42.0705 19.333 42.7662C19.9799 43.138 20.1071 43.1461 25.2463 43.149C30.763 43.1518 31.214 43.0987 31.835 42.3734C31.9849 42.1982 32.1885 41.7514 32.2874 41.3805C32.4434 40.7944 32.4186 40.6076 32.0971 39.9549C31.3988 38.5355 31.3383 38.5183 26.8503 38.4579L22.9056 38.4048L22.8545 31.2784C22.7969 23.2394 22.84 23.5082 21.5098 22.8914C20.7804 22.5532 18.7082 22.4392 18.2836 22.7139ZM35.9497 22.8809C35.5925 23.1298 35.6853 41.4697 36.0472 42.1847C36.8049 43.6807 39.3353 43.6812 40.0859 42.1856C40.2778 41.8032 40.3295 40.1751 40.3682 33.3179C40.4128 25.3725 40.3983 24.8791 40.1011 24.1931C39.8764 23.6742 39.6128 23.3836 39.1739 23.171C38.4667 22.8283 36.3043 22.6337 35.9497 22.8809ZM48.8415 22.9957C47.2807 23.3413 46.1564 23.9704 45.21 25.0279C44.2303 26.1224 43.9652 26.8882 43.9603 28.6393C43.9573 29.6449 44.0394 30.0769 44.3597 30.7414C45.1943 32.4731 46.3531 33.386 49.7304 34.9731C52.6529 36.3464 53.1356 36.7914 52.8068 37.8088C52.3242 39.3018 49.4421 39.4233 47.7667 38.0214C46.6631 37.098 45.9774 36.7406 45.3091 36.7399C44.4992 36.7391 44.1503 36.9378 43.7234 37.6429C42.5633 39.5597 44.7165 42.38 47.9424 43.1687C49.2805 43.4961 51.8811 43.4056 53.1837 42.9865C56.1941 42.0178 58.0508 39.7176 57.8855 37.1611C57.7979 35.8042 57.3924 34.9977 56.1818 33.7738C55.3296 32.912 54.7107 32.5136 52.2893 31.2684C49.2089 29.6844 48.336 29.0271 48.336 28.2915C48.336 27.5627 48.9015 26.9871 49.7442 26.8582C50.9021 26.6808 51.5009 26.8857 52.7173 27.8755C53.967 28.8923 54.4514 29.0656 55.5669 28.8948C57.0124 28.6734 57.6247 27.4933 57.0374 26.0605C56.3783 24.4528 52.9747 22.7007 50.6002 22.7464C50.2183 22.7539 49.4269 22.8661 48.8415 22.9957ZM61.621 22.888C61.4291 22.9729 61.2432 23.1437 61.2079 23.2674C61.1725 23.3912 61.1808 27.5551 61.2262 32.5205C61.3011 40.7078 61.3359 41.6042 61.6007 42.1466C62.3833 43.7504 64.868 43.7868 65.6029 42.2055C65.7959 41.7902 65.8536 41.0129 65.8543 38.8231C65.8553 34.9756 66.0224 32.1807 66.2506 32.1925C66.3502 32.1977 66.7665 32.6175 67.1755 33.1256C67.5845 33.6336 68.3135 34.5217 68.7956 35.099C69.2775 35.6763 70.0902 36.6802 70.6017 37.3298C73.281 40.7338 75.2854 42.9514 75.9162 43.209C77.1998 43.7333 78.522 43.0661 78.8914 41.7075C79.011 41.2676 79.0725 38.2424 79.073 32.7736C79.0737 25.2383 79.0481 24.4527 78.7846 23.9145C78.6258 23.5898 78.2742 23.2166 78.0033 23.0851C77.3915 22.7883 75.3335 22.6472 74.7774 22.8639L74.3643 23.025L74.424 28.5321C74.4742 33.167 74.4471 34.0392 74.2524 34.0392C74.1253 34.0392 72.5369 32.238 70.7223 30.0367C66.0071 24.3158 65.2372 23.4405 64.6467 23.1287C64.0439 22.8102 62.1391 22.6589 61.621 22.888ZM89.2059 22.9035C88.7595 23.0871 88.3983 23.6487 88.2452 24.3968C88.1352 24.9346 87.6586 26.1683 83.7097 36.1383C82.7928 38.453 82.0036 40.6172 81.9555 40.9476C81.7658 42.2544 82.8556 43.3489 84.3702 43.3722C85.0808 43.3832 85.2648 43.3113 85.7465 42.8348C86.0703 42.5143 86.49 41.7961 86.7518 41.115L87.2011 39.9454H90.5481H93.8953L94.3439 41.1133C94.8577 42.4503 95.3927 43.0772 96.2181 43.3101C97.839 43.7671 99.443 42.4039 99.1546 40.815C99.0608 40.2981 97.7607 36.9466 94.2022 28.0487C93.9052 27.3062 93.459 26.1889 93.2104 25.5659C92.6588 24.1825 92.0508 23.3367 91.361 22.9928C90.7935 22.7098 89.779 22.6678 89.2059 22.9035ZM91.8185 33.1184C92.3532 34.4836 92.7907 35.7428 92.7907 35.9167C92.7907 36.2104 92.6305 36.233 90.5597 36.233C88.6012 36.233 88.3287 36.1992 88.3287 35.9559C88.3287 35.8035 88.6567 34.8354 89.0576 33.8044C90.3019 30.6049 90.4709 30.253 90.6674 30.4537C90.7658 30.5541 91.2838 31.7532 91.8185 33.1184Z" fill="#235984"/>
</svg>
